# xmcd
#
# Track frame offsets:
#	150
#	14154
#	34751
#	55846
#	76828
#	90145
#	104944
#	151234
#	166833
#	184790
#	208692
#	229299
#
# Disc length: 3304 seconds
#
# Revision: 1
# Processed by: cddbd v1.5.1PL0 Copyright (c) Steve Scherf et al.
# Submitted via: dBpowerAMP V4.0
#
DISCID=940ce60c
DTITLE=Bryan Lee - Bryan Lee Six String Therapy
DYEAR=1900
DGENRE=Blues
TTITLE0=You Better Beleave It
TTITLE1=Go On Fool
TTITLE2=Just Like A Fish
TTITLE3=Now I Got A Woman
TTITLE4=Bumpity Bump
TTITLE5=You May
TTITLE6=Six String Therapy
TTITLE7=Beautician Blues
TTITLE8=Three Handed Woman
TTITLE9=The Little Prince
TTITLE10=Shipyard Blues
TTITLE11=Gee Baby, Ain't I Good To You
EXTD=
EXTT0=
EXTT1=
EXTT2=
EXTT3=
EXTT4=
EXTT5=
EXTT6=
EXTT7=
EXTT8=
EXTT9=
EXTT10=
EXTT11=
PLAYORDER=
